<svg xmlns="http://www.w3.org/2000/svg" width="18.679" height="18.228" viewBox="0 0 18.679 18.228">
  <path id="Path_2280" data-name="Path 2280" d="M1095.841,1477.057q0,3.476,0,6.951a.5.5,0,0,1,0,.168c-.047.122-.083.3-.173.337a.422.422,0,0,1-.355-.114c-.728-.7-1.443-1.422-2.161-2.136-.3-.3-.584-.613-.905-.884a.973.973,0,0,0-.566-.238c-2.27,0-4.54-.009-6.809.039a7.121,7.121,0,0,1-7.637-7.189q-.078-1.868-.06-3.74a3.913,3.913,0,0,1,3.972-3.929c1.529-.01,3.058.008,4.587,0,2.063-.006,4.127-.027,6.191-.03a3.9,3.9,0,0,1,3.711,2.683,4.879,4.879,0,0,1,.2,1.382C1095.852,1472.592,1095.841,1474.824,1095.841,1477.057Zm-1.556,4.315.083-.051c0-.063.01-.126.01-.189q0-5.457,0-10.915a2.426,2.426,0,0,0-2.229-2.436c-.39-.037-.786-.005-1.18-.005q-4.895,0-9.789.008a2.457,2.457,0,0,0-2.541,2.457c-.015,1.237-.007,2.476.057,3.711a7.064,7.064,0,0,0,.34,2.013,5.884,5.884,0,0,0,5.565,3.747c2.372-.034,4.744-.029,7.116-.045a2.063,2.063,0,0,1,1.561.651C1093.614,1480.668,1093.949,1481.021,1094.285,1481.372Z" transform="translate(-1077.168 -1466.295)" fill="#bfa564"/>
</svg>
