<svg xmlns="http://www.w3.org/2000/svg" width="16.418" height="22.5" viewBox="0 0 16.418 22.5">
  <g id="Group_8822" data-name="Group 8822" transform="translate(-1475.878 -521.863)">
    <g id="Group_7941" data-name="Group 7941" transform="translate(1093.801 -138.489)">
      <g id="Group_7223" data-name="Group 7223" transform="translate(382.477 660.752)">
        <path id="Path_19921" data-name="Path 19921" d="M382.713,680.5a.179.179,0,0,1-.179-.178l-.057-16.2a3.382,3.382,0,0,1,3.375-3.375h12.06a.178.178,0,0,1,.179.178v17.438a.178.178,0,0,1-.357,0V661.109H385.852a3.025,3.025,0,0,0-3.018,3.017l.057,16.2a.179.179,0,0,1-.178.179Z" transform="translate(-382.477 -660.752)" fill="#575757" stroke="#575757" stroke-width="0.8"/>
      </g>
      <g id="Group_7224" data-name="Group 7224" transform="translate(384.893 660.851)">
        <path id="Path_19922" data-name="Path 19922" d="M391.462,678.809a.178.178,0,0,1-.179-.178V661.292a.178.178,0,1,1,.357,0V678.63A.178.178,0,0,1,391.462,678.809Z" transform="translate(-391.283 -661.113)" fill="#575757" stroke="#575757" stroke-width="0.8"/>
      </g>
      <g id="Group_7231" data-name="Group 7231" transform="translate(384.041 680.144)">
        <path id="Path_19929" data-name="Path 19929" d="M401.662,731.793H388.356a.178.178,0,0,1,0-.357h13.306a.178.178,0,0,1,0,.357Z" transform="translate(-388.178 -731.436)" fill="#575757" stroke="#575757" stroke-width="0.8"/>
      </g>
      <g id="Group_8821" data-name="Group 8821">
        <g id="Group_7232" data-name="Group 7232" transform="translate(382.533 678.19)">
          <path id="Path_19930" data-name="Path 19930" d="M398.068,728.576H384.816a2.131,2.131,0,1,1,0-4.262h13.247a.179.179,0,0,1,.167.241,4.972,4.972,0,0,0-.018,3.737.176.176,0,0,1,.035.106A.178.178,0,0,1,398.068,728.576Zm-13.252-3.906a1.774,1.774,0,0,0,0,3.549H397.8a5.28,5.28,0,0,1,.01-3.549Z" transform="translate(-382.685 -724.314)" fill="#575757" stroke="#575757" stroke-width="0.8"/>
        </g>
      </g>
    </g>
  </g>
</svg>
