<svg id="Group_11505" data-name="Group 11505" xmlns="http://www.w3.org/2000/svg" width="11.925" height="16.176" viewBox="0 0 11.925 16.176">
  <g id="Group_11496" data-name="Group 11496">
    <path id="Path_43966" data-name="Path 43966" d="M508.037,412.327v12.614a1.824,1.824,0,0,0,1.86,1.781h8.2a1.763,1.763,0,0,0,1.86-1.64V413.67a1.569,1.569,0,0,0-.716-1.293v-.05a1.824,1.824,0,0,0-1.86-1.781H509.9A1.824,1.824,0,0,0,508.037,412.327Zm10.614,0c0,.323.058.423.153.475C519.156,413,518.651,411.673,518.651,412.327Z" transform="translate(-508.037 -410.546)" fill="#fff"/>
  </g>
  <g id="Group_11497" data-name="Group 11497" transform="translate(1.441 1.036)">
    <path id="Path_43967" data-name="Path 43967" d="M522.521,422.167a.3.3,0,0,0,.189.068h1.461v4.977a.3.3,0,0,0,.5.215l1.231-1.176,1.293,1.18a.3.3,0,0,0,.5-.22v-4.977h2.893a.3.3,0,0,0,.273-.18,1.235,1.235,0,0,0-.009-.987,1.069,1.069,0,0,0-.792-.529.309.309,0,0,0-.058-.006h-7.293a.3.3,0,0,0-.052,0c-.061.011-.6.119-.718.554C521.812,421.583,522.346,422.022,522.521,422.167Zm.22-1.039h7.231a.41.41,0,0,1,.39.512H527.4a.3.3,0,0,0-.3.3v4.6l-1-.913a.3.3,0,0,0-.406,0l-.93.888v-4.579a.3.3,0,0,0-.3-.3H522.82c-.31-.274-.3-.4-.3-.4A.421.421,0,0,1,522.741,421.128Z" transform="translate(-521.921 -420.533)" fill="#bfa565"/>
  </g>
</svg>
