<svg xmlns="http://www.w3.org/2000/svg" width="23.361" height="26.618" viewBox="0 0 23.361 26.618">
  <g id="write" transform="translate(-71.602 -647.227)">
    <path id="Path_20721" data-name="Path 20721" d="M105.545,690.727h0Z" transform="translate(-19.744 -25.303)" fill="#6a0b2d"/>
    <path id="Path_20722" data-name="Path 20722" d="M90.843,659.005V647.682c0-.279-.209-.455-.537-.455H72.2c-.328,0-.594.176-.594.455v21.66a.587.587,0,0,0,.594.547h7.487c1.219-1.069,2.411-2.311,3.608-3.486C85.808,663.935,88.277,661.417,90.843,659.005Zm-2.78-8c0,.392-.167.711-.373.711H74.755c-.207,0-.374-.319-.374-.711v-.076c0-.392.167-.71.374-.71H87.691c.206,0,.373.318.373.71Zm0,3.42c0,.392-.167.711-.373.711H74.755c-.207,0-.374-.318-.374-.711v-.075c0-.392.167-.711.374-.711H87.691c.206,0,.373.319.373.711Zm0,3.421c0,.392-.167.711-.373.711H74.755c-.207,0-.374-.318-.374-.711v-.076c0-.392.167-.71.374-.71H87.691c.206,0,.373.318.373.71Z" transform="translate(0 0)" fill="#6a0b2d"/>
    <path id="Path_20723" data-name="Path 20723" d="M105.735,677.857a1.448,1.448,0,0,0-.1-2.045,1.726,1.726,0,0,0-2-.254l-.008,0-.022.019c-.059.031-.118.062-.179.1,0,0-.071.017-.036.033-.049.005,0,0-.054.005l-.055.009-2.537,2.47c-.049.044-.1.087-.14.13l-6.777,6.535a4.524,4.524,0,0,0-.449.516l.013-.009.007-.005L90.768,690.2l4.834-2.494c.054.026.314-.164.6-.437l6.746-6.534c.042-.041.086-.085.129-.13l2.674-2.622-.005-.061C105.742,677.917,105.739,677.893,105.735,677.857Zm-2.7.515a3.418,3.418,0,0,0-1.411-.8l1.63-1.588a3.536,3.536,0,0,1,1.458.729,2.427,2.427,0,0,1,.765,1.316l-1.761,1.726A2.154,2.154,0,0,0,103.034,678.372Zm-.131,1.744-6.7,6.462-.2.2a1.239,1.239,0,0,0-.4.8l-2.611,1.361a.864.864,0,0,0-1-.791l1.494-2.74a1.709,1.709,0,0,0,1.029-.4c.043-.04-.021.016.02-.024l6.9-6.666c.1-.095.149-.147.2-.2.1.038.215.088.332.143-.042.04-.082.078-.13.126L94.713,685.2a3.278,3.278,0,0,0-.461.535c-.3.48-.28.792.017,1.1.316.326.736.239,1.248-.094a2.182,2.182,0,0,0,.376-.291l7.142-6.923c.054-.054.1-.105.15-.151a2.366,2.366,0,0,1,.152.336C103.163,679.868,103.062,679.961,102.9,680.116Z" transform="translate(-11.149 -16.357)" fill="#6a0b2d"/>
  </g>
</svg>
