<svg id="Group_2650" data-name="Group 2650" xmlns="http://www.w3.org/2000/svg" width="24.38" height="24.381" viewBox="0 0 24.38 24.381">
  <path id="Path_9321" data-name="Path 9321" d="M447.35,8615.445h-13.5a.516.516,0,0,0-.517.516v8.2a.519.519,0,0,0,.517.518h13.5a.518.518,0,0,0,.516-.518v-8.2A.516.516,0,0,0,447.35,8615.445Zm-.692,1.937-5.719,5.039a.514.514,0,0,1-.683,0l-5.72-5.039a.517.517,0,1,1,.683-.775l5.378,4.738,5.378-4.738a.517.517,0,1,1,.683.775Z" transform="translate(-428.407 -8607.869)" fill="#6a0b2d"/>
  <path id="Path_9322" data-name="Path 9322" d="M439.6,8606.336a12.19,12.19,0,1,0,12.19,12.191A12.19,12.19,0,0,0,439.6,8606.336Zm8.3,16.288a1.553,1.553,0,0,1-1.55,1.552h-13.5a1.553,1.553,0,0,1-1.55-1.552v-8.2a1.552,1.552,0,0,1,1.55-1.55h13.5a1.552,1.552,0,0,1,1.55,1.55Z" transform="translate(-427.41 -8606.336)" fill="#6a0b2d"/>
</svg>
