<svg xmlns="http://www.w3.org/2000/svg" width="48.847" height="48.847" viewBox="0 0 48.847 48.847">
  <g id="Group_8822" data-name="Group 8822" transform="translate(-455 -1919)">
    <rect id="Rectangle_2921" data-name="Rectangle 2921" width="48.847" height="48.847" transform="translate(455 1919)" fill="#1e4fad"/>
    <path id="Path_16465" data-name="Path 16465" d="M-428.574,92.729c.736-.025,1.472,0,2.21-.007h.3V88.893c-.394-.039-.806-.1-1.217-.116-.755-.033-1.511-.072-2.267-.054a5.563,5.563,0,0,0-3.2.989,4.792,4.792,0,0,0-1.922,3.2,11.189,11.189,0,0,0-.133,1.643c-.021.86,0,1.718,0,2.579v.322h-3.664v4.277h3.643v10.751h4.452V101.747h3.63c.186-1.422.368-2.831.559-4.3H-427c-1.032,0-3.4,0-3.4,0s.011-2.121.036-3.04C-430.331,93.15-429.583,92.765-428.574,92.729Z" transform="translate(911.467 1843.281)" fill="#fff" fill-rule="evenodd"/>
  </g>
</svg>
