<svg xmlns="http://www.w3.org/2000/svg" xmlns:xlink="http://www.w3.org/1999/xlink" width="49" height="49" viewBox="0 0 49 49">
  <defs>
    <linearGradient id="linear-gradient" x1="0.871" y1="0.836" x2="0.113" y2="0.149" gradientUnits="objectBoundingBox">
      <stop offset="0" stop-color="#fec053"/>
      <stop offset="0.327" stop-color="#f2203e"/>
      <stop offset="0.648" stop-color="#b729a8"/>
      <stop offset="1" stop-color="#5342d6"/>
    </linearGradient>
  </defs>
  <g id="Group_8820" data-name="Group 8820" transform="translate(-455 -1870)">
    <rect id="Rectangle_2925" data-name="Rectangle 2925" width="49" height="49" transform="translate(455 1870)" fill="url(#linear-gradient)"/>
    <g id="Group_5111" data-name="Group 5111" transform="translate(467.547 1882.932)">
      <path id="Path_15257" data-name="Path 15257" d="M1065.372,9944.787c3.093,0,3.458.011,4.68.067a6.43,6.43,0,0,1,2.151.4,3.825,3.825,0,0,1,2.2,2.2,6.4,6.4,0,0,1,.4,2.15c.056,1.223.068,1.588.068,4.681s-.011,3.458-.068,4.681a6.39,6.39,0,0,1-.4,2.15,3.835,3.835,0,0,1-2.2,2.2,6.444,6.444,0,0,1-2.151.4c-1.222.055-1.588.067-4.68.067s-3.459-.013-4.681-.067a6.433,6.433,0,0,1-2.15-.4,3.834,3.834,0,0,1-2.2-2.2,6.414,6.414,0,0,1-.4-2.15c-.056-1.223-.068-1.588-.068-4.681s.012-3.458.068-4.681a6.42,6.42,0,0,1,.4-2.15,3.824,3.824,0,0,1,2.2-2.2,6.42,6.42,0,0,1,2.15-.4c1.222-.057,1.588-.067,4.681-.067m0-2.088c-3.146,0-3.54.016-4.775.07a8.539,8.539,0,0,0-2.811.538,5.912,5.912,0,0,0-3.387,3.389,8.492,8.492,0,0,0-.539,2.811c-.056,1.235-.07,1.63-.07,4.775s.013,3.54.07,4.775a8.487,8.487,0,0,0,.539,2.811,5.921,5.921,0,0,0,3.387,3.388,8.486,8.486,0,0,0,2.811.539c1.236.057,1.63.07,4.775.07s3.54-.014,4.775-.07a8.491,8.491,0,0,0,2.812-.539,5.921,5.921,0,0,0,3.387-3.388,8.508,8.508,0,0,0,.538-2.811c.056-1.235.07-1.629.07-4.775s-.013-3.54-.07-4.775a8.513,8.513,0,0,0-.538-2.811,5.912,5.912,0,0,0-3.387-3.389,8.544,8.544,0,0,0-2.812-.538c-1.235-.055-1.63-.07-4.775-.07" transform="translate(-1053.79 -9942.699)" fill="#fff"/>
      <path id="Path_15258" data-name="Path 15258" d="M1066.148,9949.11a5.948,5.948,0,1,0,5.948,5.948,5.948,5.948,0,0,0-5.948-5.948m0,9.809a3.86,3.86,0,1,1,3.86-3.86,3.86,3.86,0,0,1-3.86,3.86" transform="translate(-1054.566 -9943.475)" fill="#fff"/>
      <path id="Path_15259" data-name="Path 15259" d="M1075.2,9948.651a1.39,1.39,0,1,1-1.39-1.391,1.389,1.389,0,0,1,1.39,1.391" transform="translate(-1056.045 -9943.251)" fill="#fff"/>
    </g>
  </g>
</svg>
