<svg xmlns="http://www.w3.org/2000/svg" width="24.859" height="24.86" viewBox="0 0 24.859 24.86">
  <g id="Group_8821" data-name="Group 8821" transform="translate(0 0)">
    <path id="Path_9323" data-name="Path 9323" d="M440.922,8703.872a5.4,5.4,0,0,0-5.39,5.39c0,1.938.581,2.7,3.805,6.954.473.624,1,1.316,1.585,2.1.582-.776,1.1-1.465,1.575-2.085,3.232-4.263,3.815-5.032,3.815-6.967A5.4,5.4,0,0,0,440.922,8703.872Zm0,8.822a3.432,3.432,0,1,1,3.43-3.433A3.435,3.435,0,0,1,440.922,8712.694Z" transform="translate(-428.492 -8698.825)" fill="#6a0b2d"/>
    <path id="Path_9324" data-name="Path 9324" d="M439.5,8697.8a12.43,12.43,0,1,0,12.429,12.43A12.429,12.429,0,0,0,439.5,8697.8Zm2.356,18c-.573.754-1.222,1.61-1.964,2.6a.491.491,0,0,1-.784,0c-.746-1-1.4-1.855-1.973-2.613-3.315-4.37-4-5.279-4-7.546a6.37,6.37,0,1,1,12.74,0C445.866,8710.5,445.175,8711.417,441.852,8715.8Z" transform="translate(-427.066 -8697.805)" fill="#6a0b2d"/>
    <path id="Path_9325" data-name="Path 9325" d="M441.518,8707.41a2.449,2.449,0,1,0,2.45,2.447A2.451,2.451,0,0,0,441.518,8707.41Z" transform="translate(-429.087 -8699.422)" fill="#6a0b2d"/>
  </g>
</svg>
