<svg xmlns="http://www.w3.org/2000/svg" width="17.637" height="17.629" viewBox="0 0 17.637 17.629">
  <g id="Group_11506" data-name="Group 11506" transform="translate(0.25 0.25)">
    <path id="Path_24012" data-name="Path 24012" d="M-1045.528,199.972l.128.071a.535.535,0,0,1,.263.568.538.538,0,0,1-.476.427c-.067.006-.134,0-.2,0h-6.8v14.988h6.824a1.172,1.172,0,0,1,.233.013.534.534,0,0,1,.426.561.538.538,0,0,1-.5.494c-.055,0-.112,0-.167,0h-7.226c-.478,0-.667-.19-.667-.668q0-7.877,0-15.754a.668.668,0,0,1,.406-.707Z" transform="translate(1053.697 -199.972)" fill="#fff" stroke="#fff" stroke-width="0.5"/>
    <path id="Path_24013" data-name="Path 24013" d="M-972.927,281.289a3.838,3.838,0,0,1-.307.407q-1.727,1.762-3.465,3.513a.9.9,0,0,1-.327.218.5.5,0,0,1-.57-.215.543.543,0,0,1,.017-.626,1.589,1.589,0,0,1,.135-.148q1.267-1.287,2.537-2.572a.892.892,0,0,1,.151-.1l-.04-.063h-10.781c-.072,0-.145,0-.217,0a.534.534,0,0,1-.515-.515.541.541,0,0,1,.491-.557,1.856,1.856,0,0,1,.2,0h10.854c-.059-.065-.1-.11-.137-.151q-1.285-1.3-2.572-2.608a.6.6,0,0,1-.213-.471.513.513,0,0,1,.292-.454.5.5,0,0,1,.551.046,1.288,1.288,0,0,1,.16.146q1.761,1.786,3.521,3.575a2.78,2.78,0,0,1,.235.316Z" transform="translate(990.064 -272.591)" fill="#fff" stroke="#fff" stroke-width="0.5"/>
  </g>
</svg>
