<svg xmlns="http://www.w3.org/2000/svg" width="11.629" height="14.681" viewBox="0 0 11.629 14.681">
  <g id="Group_7987" data-name="Group 7987" transform="translate(-21.445 -1.953)">
    <g id="Group_7912" data-name="Group 7912" transform="translate(21.445 1.953)">
      <g id="Group_7910" data-name="Group 7910" transform="translate(2.681)">
        <path id="Path_20637" data-name="Path 20637" d="M652.647,103.622a3.134,3.134,0,1,1-3.134-3.134A3.134,3.134,0,0,1,652.647,103.622Z" transform="translate(-646.379 -100.488)" fill="#bfa565"/>
      </g>
      <g id="Group_7911" data-name="Group 7911" transform="translate(0 7.34)">
        <path id="Path_20638" data-name="Path 20638" d="M647.884,112.29h0a5.815,5.815,0,0,0-5.815,5.815h0a1.526,1.526,0,0,0,1.526,1.526h8.578A1.525,1.525,0,0,0,653.7,118.1h0A5.815,5.815,0,0,0,647.884,112.29Z" transform="translate(-642.069 -112.29)" fill="#bfa565"/>
      </g>
    </g>
  </g>
</svg>
