<svg xmlns="http://www.w3.org/2000/svg" width="11.555" height="15.35" viewBox="0 0 11.555 15.35">
  <g id="Group_8828" data-name="Group 8828" transform="translate(-3236.17 -543.315)">
    <g id="Group_7988" data-name="Group 7988" transform="translate(3236.17 552.2)">
      <path id="Path_20708" data-name="Path 20708" d="M3247.468,798.868h-11.042a.257.257,0,0,1-.257-.257V793.5a1.1,1.1,0,0,1,1.1-1.1h9.36a1.1,1.1,0,0,1,1.1,1.1v5.111A.257.257,0,0,1,3247.468,798.868Zm-10.785-.514h10.528l-.384.514c0-.322-7.542,0-7.864,0l-2.279-.257c-.322,0,0-5.433,0-5.111Z" transform="translate(-3236.17 -792.402)" fill="#bfa565"/>
    </g>
    <g id="Group_7989" data-name="Group 7989" transform="translate(3241 547.887)">
      <path id="Path_20709" data-name="Path 20709" d="M3373.492,676.313h-1.639a.257.257,0,0,1-.257-.257v-4.313a.257.257,0,0,1,.257-.257h1.639a.257.257,0,0,1,.257.257v4.313A.257.257,0,0,1,3373.492,676.313Zm-1.382-.514h1.125V672h-1.125Z" transform="translate(-3371.596 -671.486)" fill="#bfa565"/>
    </g>
    <g id="Group_7990" data-name="Group 7990" transform="translate(3241.028 543.315)">
      <path id="Path_20710" data-name="Path 20710" d="M3372.929,547.279a.256.256,0,0,1-.2-.091,1.507,1.507,0,0,1,.491-2.368c.67-.419.809-.735.833-.887a.346.346,0,0,0,0-.133c-.032-.065-.053-.1-.054-.1a.257.257,0,0,1,.42-.292.663.663,0,0,1,.108.193c.278.562,1.123,2.531-.042,3.613a.257.257,0,1,1-.35-.376,2.215,2.215,0,0,0,.213-2.319,2.957,2.957,0,0,1-.851.741,1.185,1.185,0,0,0-.619.781,1.168,1.168,0,0,0,.248.82.257.257,0,0,1-.2.423Z" transform="translate(-3372.354 -543.315)" fill="#bfa565"/>
    </g>
    <g id="Group_7996" data-name="Group 7996" transform="translate(3236.17 554.12)">
      <g id="Group_7991" data-name="Group 7991" transform="translate(0 0)">
        <path id="Path_20711" data-name="Path 20711" d="M3237.527,847.847a1.371,1.371,0,0,1-1.357-1.381.257.257,0,0,1,.514,0,.843.843,0,1,0,1.686,0,.257.257,0,0,1,.514,0A1.371,1.371,0,0,1,3237.527,847.847Z" transform="translate(-3236.17 -846.209)" fill="#fff"/>
      </g>
      <g id="Group_7992" data-name="Group 7992" transform="translate(2.2 0)">
        <path id="Path_20712" data-name="Path 20712" d="M3299.195,847.847a1.371,1.371,0,0,1-1.357-1.381.257.257,0,0,1,.514,0,.843.843,0,1,0,1.686,0,.257.257,0,0,1,.514,0A1.371,1.371,0,0,1,3299.195,847.847Z" transform="translate(-3297.838 -846.209)" fill="#fff"/>
      </g>
      <g id="Group_7993" data-name="Group 7993" transform="translate(4.399 0)">
        <path id="Path_20713" data-name="Path 20713" d="M3360.861,847.847a1.371,1.371,0,0,1-1.357-1.381.257.257,0,0,1,.514,0,.843.843,0,1,0,1.686,0,.257.257,0,0,1,.514,0A1.371,1.371,0,0,1,3360.861,847.847Z" transform="translate(-3359.504 -846.209)" fill="#fff"/>
      </g>
      <g id="Group_7994" data-name="Group 7994" transform="translate(6.599 0)">
        <path id="Path_20714" data-name="Path 20714" d="M3422.529,847.847a1.371,1.371,0,0,1-1.357-1.381.257.257,0,0,1,.514,0,.843.843,0,1,0,1.686,0,.257.257,0,0,1,.514,0A1.371,1.371,0,0,1,3422.529,847.847Z" transform="translate(-3421.172 -846.209)" fill="#fff"/>
      </g>
      <g id="Group_7995" data-name="Group 7995" transform="translate(8.799 0)">
        <path id="Path_20715" data-name="Path 20715" d="M3484.2,847.847a1.371,1.371,0,0,1-1.357-1.381.257.257,0,0,1,.514,0,.843.843,0,1,0,1.686,0,.257.257,0,0,1,.514,0A1.371,1.371,0,0,1,3484.2,847.847Z" transform="translate(-3482.839 -846.209)" fill="#fff"/>
      </g>
    </g>
  </g>
</svg>
