<svg xmlns="http://www.w3.org/2000/svg" width="9.509" height="12.314" viewBox="0 0 9.509 12.314">
  <g id="Group_8829" data-name="Group 8829" transform="translate(-573.965 -369.483)">
    <path id="Path_20717" data-name="Path 20717" d="M584.755,378.215a1.417,1.417,0,1,0,1.417,1.417A1.418,1.418,0,0,0,584.755,378.215Z" transform="translate(-6.035 -5.623)" fill="#bfa565"/>
    <path id="Path_20718" data-name="Path 20718" d="M578.719,369.483a4.754,4.754,0,0,0-4.754,4.754c0,2.239,3.457,6.289,4.475,7.434a.373.373,0,0,0,.558,0c1.018-1.145,4.475-5.2,4.475-7.434A4.754,4.754,0,0,0,578.719,369.483Zm0,6.877a2.351,2.351,0,1,1,2.351-2.351A2.353,2.353,0,0,1,578.719,376.36Z" fill="#bfa565"/>
  </g>
</svg>
