<svg xmlns="http://www.w3.org/2000/svg" width="12.318" height="9.48" viewBox="0 0 12.318 9.48">
  <g id="Group_8830" data-name="Group 8830" transform="translate(-569.625 -263.993)">
    <path id="Path_20719" data-name="Path 20719" d="M572.218,264.125l4.28,4.857a1.283,1.283,0,0,0,1.924,0l4.206-4.772a.451.451,0,0,1,.119-.094,1.442,1.442,0,0,0-.582-.122h-9.411a1.448,1.448,0,0,0-.559.112C572.2,264.112,572.211,264.117,572.218,264.125Z" transform="translate(-1.676)" fill="#bfa565"/>
    <path id="Path_20720" data-name="Path 20720" d="M581.719,265.95a.456.456,0,0,1-.083.139l-4.206,4.772a2.2,2.2,0,0,1-3.294,0L569.857,266c-.008-.01-.015-.021-.022-.031a1.446,1.446,0,0,0-.21.749V273.3a1.454,1.454,0,0,0,1.454,1.454h9.411a1.454,1.454,0,0,0,1.453-1.454v-6.573A1.447,1.447,0,0,0,581.719,265.95Z" transform="translate(0 -1.276)" fill="#bfa565"/>
  </g>
</svg>
