<svg xmlns="http://www.w3.org/2000/svg" width="8.299" height="11.042" viewBox="0 0 8.299 11.042">
  <path id="Path_20716" data-name="Path 20716" d="M190.261,1033.562c-.495-.836-1.011-1.2-1.8-.761l-.2.12c-1.282-.021-2-1.671-2.243-1.961-.137-.353-1.238-1.777-.64-2.91l.2-.12c.767-.478.693-1.107.2-1.943h0c-.44-.744-.662-1.434-1.31-1.05l-.406.24a2.8,2.8,0,0,0-1.085,1.123h0a3.7,3.7,0,0,0,.1,3.583l1.234,2.084,1.234,2.084a3.695,3.695,0,0,0,3.091,1.815h0a2.8,2.8,0,0,0,1.507-.411l.406-.24c.648-.384.15-.91-.29-1.654Z" transform="translate(-182.564 -1024.827)" fill="#bfa565"/>
</svg>
