<svg xmlns="http://www.w3.org/2000/svg" width="24.38" height="24.38" viewBox="0 0 24.38 24.38">
  <path id="Path_16238" data-name="Path 16238" d="M439.316,8651.419a12.19,12.19,0,1,0,12.19,12.192A12.191,12.191,0,0,0,439.316,8651.419Zm4.939,17.228a2.629,2.629,0,0,1-1.36,1.635,2.219,2.219,0,0,1-.943.2,2.935,2.935,0,0,1-1.094-.228,14.79,14.79,0,0,1-4.855-3.163l-.011-.011a14.813,14.813,0,0,1-3.167-4.858,2.521,2.521,0,0,1-.027-2.037,2.634,2.634,0,0,1,1.636-1.359,1.476,1.476,0,0,1,1.012.006,5.994,5.994,0,0,1,2.293,3.121,1.485,1.485,0,0,1-.783,1.313.491.491,0,0,1-.553-.811c.315-.214.365-.311.358-.449a6.32,6.32,0,0,0-1.657-2.257.493.493,0,0,0-.356,0,1.69,1.69,0,0,0-1.057.839,1.57,1.57,0,0,0,.042,1.26,13.812,13.812,0,0,0,2.951,4.535l0,0a13.856,13.856,0,0,0,4.541,2.956,1.567,1.567,0,0,0,1.259.042,1.686,1.686,0,0,0,.84-1.059.5.5,0,0,0,0-.354,6.3,6.3,0,0,0-2.261-1.657c-.132-.007-.23.044-.445.357a.49.49,0,0,1-.809-.552,1.48,1.48,0,0,1,1.31-.784,6,6,0,0,1,3.124,2.295A1.479,1.479,0,0,1,444.254,8668.646ZM439.361,8660a.491.491,0,0,1,.49-.491,3.343,3.343,0,0,1,3.336,3.338.49.49,0,1,1-.98,0,2.359,2.359,0,0,0-2.357-2.356A.491.491,0,0,1,439.361,8660Zm6.183,3.337a.49.49,0,0,1-.49-.49,5.208,5.208,0,0,0-5.2-5.2.49.49,0,1,1,0-.979,6.185,6.185,0,0,1,6.183,6.184A.49.49,0,0,1,445.544,8663.336Z" transform="translate(-427.125 -8651.419)" fill="#6a0b2d"/>
</svg>
