<svg xmlns="http://www.w3.org/2000/svg" width="21.379" height="22.63" viewBox="0 0 21.379 22.63">
  <g id="Group_8820" data-name="Group 8820" transform="translate(-0.001 0)">
    <path id="Path_174" data-name="Path 174" d="M18.177,59.551c5.9,0,10.69-.347,10.69-2.973a8.931,8.931,0,0,0-7.172-8.564,4.639,4.639,0,0,1-7.029,0,8.931,8.931,0,0,0-7.178,8.564C7.487,59.2,12.273,59.551,18.177,59.551Z" transform="translate(-7.486 -36.921)" fill="#bfa564"/>
    <path id="Path_175" data-name="Path 175" d="M31.556,10.62c.367,3.082,2.007,5.62,4.483,5.62s4.124-2.537,4.483-5.62C40.917,7.244,39.378,5,36.04,5S31.163,7.309,31.556,10.62Z" transform="translate(-25.35 -5)" fill="#bfa564"/>
  </g>
</svg>
