<svg xmlns="http://www.w3.org/2000/svg" width="48.847" height="48.847" viewBox="0 0 48.847 48.847">
  <g id="Group_8821" data-name="Group 8821" transform="translate(-455 -1968)">
    <rect id="Rectangle_2922" data-name="Rectangle 2922" width="48.847" height="48.847" transform="translate(455 1968)" fill="#1ba5d4"/>
    <path id="Path_16466" data-name="Path 16466" d="M-439.061,150.9a4.925,4.925,0,0,1-4.569-3.408,4.887,4.887,0,0,0,2.106-.063.709.709,0,0,0,.07-.032,4.906,4.906,0,0,1-3.19-2.254,4.776,4.776,0,0,1-.719-2.611,4.842,4.842,0,0,0,2.185.6,4.935,4.935,0,0,1-2.021-2.979,4.864,4.864,0,0,1,.527-3.557,14.051,14.051,0,0,0,10.129,5.132c-.029-.2-.059-.366-.079-.538a4.763,4.763,0,0,1,.718-3.211,4.716,4.716,0,0,1,3.33-2.22,4.784,4.784,0,0,1,4.3,1.369.249.249,0,0,0,.262.078,9.883,9.883,0,0,0,2.856-1.1.72.72,0,0,1,.065-.033s.013,0,.033,0a5.024,5.024,0,0,1-2.1,2.672,9.438,9.438,0,0,0,2.734-.736l.02.022c-.189.246-.37.5-.565.736a9.646,9.646,0,0,1-1.785,1.7.166.166,0,0,0-.081.154,13.429,13.429,0,0,1-.091,2.181,14.437,14.437,0,0,1-1.266,4.372,14.133,14.133,0,0,1-2.655,3.871A13.128,13.128,0,0,1-435.6,154.8a14.716,14.716,0,0,1-2.736.324,13.878,13.878,0,0,1-7.859-2.109c-.031-.018-.061-.041-.115-.075a9.933,9.933,0,0,0,4.912-.678A9.706,9.706,0,0,0-439.061,150.9Z" transform="translate(913.309 1847.323)" fill="#fff" fill-rule="evenodd"/>
  </g>
</svg>
