<svg xmlns="http://www.w3.org/2000/svg" width="48.847" height="48.847" viewBox="0 0 48.847 48.847">
  <g id="Group_8823" data-name="Group 8823" transform="translate(-455 -2017)">
    <rect id="Rectangle_2923" data-name="Rectangle 2923" width="48.847" height="48.847" transform="translate(455 2017)" fill="#0b8f21"/>
    <g id="Group_5110" data-name="Group 5110" transform="translate(-1412.905 1645.424)">
      <path id="Path_900" data-name="Path 900" d="M-444.417,204.436c.127-.49.238-.917.352-1.344.374-1.365.758-2.728,1.113-4.1a1,1,0,0,0-.067-.658,11.274,11.274,0,0,1,7.389-16.323,11.22,11.22,0,0,1,13.638,8.879,11.294,11.294,0,0,1-9.117,13.216,11.332,11.332,0,0,1-7.041-1.025,1.1,1.1,0,0,0-.693-.076C-441.829,203.756-443.815,204.318-444.417,204.436Zm2.626-2.59c1.123-.292,2.158-.55,3.182-.839a.924.924,0,0,1,.77.112A9.231,9.231,0,0,0-431.6,202.3a9.42,9.42,0,0,0,7.841-10.706,9.407,9.407,0,0,0-11-7.871,9.406,9.406,0,0,0-6.547,13.816,1.962,1.962,0,0,1,.21,1.79C-441.375,200.12-441.548,200.947-441.791,201.846Z" transform="translate(2325.322 202.872)" fill="#fff" fill-rule="evenodd"/>
      <path id="Path_901" data-name="Path 901" d="M-429.657,198.906c-2.2-.078-5.708-1.817-8.109-5.989a3.386,3.386,0,0,1,.52-4.334,1.57,1.57,0,0,1,1.448-.214c.122.018.249.2.31.343.321.728.636,1.457.914,2.2.146.393-.124.764-.694,1.421a.487.487,0,0,0-.077.64,7.7,7.7,0,0,0,3.913,3.359.471.471,0,0,0,.594-.159c.9-1.1.991-1.42,1.465-1.194,2.278,1.088,2.455,1.133,2.466,1.392A2.483,2.483,0,0,1-429.657,198.906Z" transform="translate(2324.842 202.354)" fill="#fff" fill-rule="evenodd"/>
    </g>
  </g>
</svg>
